<svg width="23" height="23" viewBox="0 0 23 23" fill="none" xmlns="http://www.w3.org/2000/svg">
<path d="M11.5 23C11.0345 23 10.6446 22.8423 10.3303 22.5269C10.0149 22.2125 9.85714 21.8226 9.85714 21.3571V13.1429H1.64286C1.17738 13.1429 0.786929 12.9851 0.4715 12.6697C0.157167 12.3554 0 11.9655 0 11.5C0 11.0345 0.157167 10.6441 0.4715 10.3286C0.786929 10.0143 1.17738 9.85714 1.64286 9.85714H9.85714V1.64286C9.85714 1.17738 10.0149 0.786929 10.3303 0.4715C10.6446 0.157167 11.0345 0 11.5 0C11.9655 0 12.3559 0.157167 12.6714 0.4715C12.9857 0.786929 13.1429 1.17738 13.1429 1.64286V9.85714H21.3571C21.8226 9.85714 22.2125 10.0143 22.5269 10.3286C22.8423 10.6441 23 11.0345 23 11.5C23 11.9655 22.8423 12.3554 22.5269 12.6697C22.2125 12.9851 21.8226 13.1429 21.3571 13.1429H13.1429V21.3571C13.1429 21.8226 12.9857 22.2125 12.6714 22.5269C12.3559 22.8423 11.9655 23 11.5 23Z" fill="black"/>
</svg>
