<svg width="21" height="16" viewBox="0 0 21 16" fill="none" xmlns="http://www.w3.org/2000/svg">
<path d="M20.3927 2.98757L11.1707 14.6948C11.0609 14.8337 10.942 14.9319 10.8139 14.9894C10.6858 15.0477 10.5486 15.0769 10.4022 15.0769C10.2558 15.0769 10.1186 15.0477 9.99048 14.9894C9.8624 14.9319 9.74346 14.8337 9.63367 14.6948L0.384249 2.98757C0.128083 2.66334 -4.51027e-07 2.25805 -4.68139e-07 1.77169C-4.85251e-07 1.28534 0.137231 0.868468 0.411695 0.521073C0.686159 0.173679 1.00637 -1.86847e-05 1.37232 -1.87046e-05C1.73827 -1.87244e-05 2.05848 0.173679 2.33294 0.521073L10.4022 10.7345L18.4714 0.521072C18.7276 0.196837 19.043 0.0347193 19.4178 0.0347192C19.7932 0.0347192 20.1182 0.208416 20.3927 0.555811C20.6671 0.903206 20.8043 1.3085 20.8043 1.77169C20.8043 2.23488 20.6671 2.64018 20.3927 2.98757Z" fill="black"/>
</svg>
